Coordinates
version=1
nRows=17
nColumns=24
inDegrees=yes

Units are S.I. units (second, meters, Newtons, ...)
Angles are in degrees.

endheader
time	pelvis_tilt	pelvis_list	pelvis_rotation	pelvis_tx	pelvis_ty	pelvis_tz	hip_flexion_r	hip_adduction_r	hip_rotation_r	knee_angle_r	ankle_angle_r	subtalar_angle_r	mtp_angle_r	hip_flexion_l	hip_adduction_l	hip_rotation_l	knee_angle_l	ankle_angle_l	subtalar_angle_l	mtp_angle_l	lumbar_extension	lumbar_bending	lumbar_rotation
      0.01000000	     71.08477377	     -2.69135124	      3.14071658	      0.65322914	      1.01601077	     -0.21035374	     -9.80720196	     -2.42737685	      3.74387390	    -20.46330346	    -17.47060723	     22.12818608	     45.07543750	    -15.85847889	    -15.77699676	      3.19645825	    -58.44035934	    -27.05939369	    -92.93839921	     12.00705138	      0.00000000	      0.00000000	      0.00000000
      0.02000000	     70.95244327	     -2.59156954	      3.08449084	      0.65315289	      1.01596781	     -0.21018450	     -9.40743239	     -2.52161541	      4.11372281	    -19.69676288	    -17.93728723	     20.98367498	     44.77044174	    -15.69745115	    -15.63622591	      3.22660173	    -58.46330377	    -27.01536936	    -93.00426938	     11.94666137	      0.00000000	      0.00000000	      0.00000000
      0.03000000	     70.84935768	     -2.57795481	      3.03371714	      0.65310153	      1.01592302	     -0.21006829	     -9.00087758	     -2.54832052	      4.44207436	    -19.06590261	    -18.20267700	     20.35565301	     44.53921102	    -15.57753117	    -15.60212369	      3.21893943	    -58.48598574	    -26.95768790	    -93.06603528	     11.85853654	      0.00000000	      0.00000000	      0.00000000
      0.04000000	     70.76440160	     -2.62292916	      2.98833524	      0.65306477	      1.01587048	     -0.20999964	     -8.58951855	     -2.52087474	      4.73836422	    -18.55276088	    -18.31156842	     20.11921485	     44.36571725	    -15.48372874	    -15.64205359	      3.18369148	    -58.50674428	    -26.89279103	    -93.12508734	     11.74409863	      0.00000000	      0.00000000	      0.00000000
      0.05000000	     70.68637687	     -2.69863869	      2.94807305	      0.65302927	      1.01581092	     -0.20995315	     -8.17641013	     -2.45660697	      5.01170288	    -18.13649040	    -18.31757843	     20.12892670	     44.23211387	    -15.40062342	    -15.72145967	      3.13260991	    -58.52370050	    -26.82746486	    -93.18293941	     11.60540252	      0.00000000	      0.00000000	      0.00000000
      0.06000000	     70.60753708	     -2.78428640	      2.91203362	      0.65299028	      1.01575354	     -0.20989936	     -7.76560803	     -2.37288341	      5.26775841	    -17.79802376	    -18.27188218	     20.25150346	     44.12303072	    -15.31700110	    -15.81354476	      3.07615747	    -58.53540409	    -26.76694062	    -93.24088485	     11.44505264	      0.00000000	      0.00000000	      0.00000000
      0.07000000	     70.52472945	     -2.86758503	      2.87864894	      0.65294862	      1.01570827	     -0.20983082	     -7.36236562	     -2.28307237	      5.50799211	    -17.52252033	    -18.21619529	     20.38452271	     44.02778759	    -15.22785652	    -15.90266843	      3.02181065	    -58.54133124	    -26.71414088	    -93.29985379	     11.26626081	      0.00000000	      0.00000000	      0.00000000
      0.08000000	     70.43892208	     -2.94323003	      2.84620676	      0.65289459	      1.01568032	     -0.20976101	     -6.97309859	     -2.19420252	      5.73073276	    -17.29983847	    -18.17939520	     20.46345716	     43.94098390	    -15.13420990	    -15.98291521	      2.97349117	    -58.54207697	    -26.66991507	    -93.36037908	     11.07300641	      0.00000000	      0.00000000	      0.00000000
      0.09000000	     70.35401855	     -3.01062546	      2.81355671	      0.65282294	      1.01566873	     -0.20969975	     -6.60481872	     -2.10738435	      5.93303667	    -17.12367699	    -18.17703700	     20.46000520	     43.86193137	    -15.04130197	    -16.05436387	      2.93201237	    -58.53911833	    -26.63397167	    -93.42259965	     10.87022168	      0.00000000	      0.00000000	      0.00000000
      0.10000000	     70.27511918	     -3.07189929	      2.78056334	      0.65275292	      1.01566701	     -0.20964232	     -6.26440746	     -2.02016143	      6.11233571	    -16.99026935	    -18.21292730	     20.37490793	     43.79339572	    -14.95591868	    -16.11921896	      2.89614494	    -58.53423213	    -26.60611346	    -93.48627741	     10.66390388	      0.00000000	      0.00000000	      0.00000000
      0.11000000	     70.20649845	     -3.13008031	      2.74801136	      0.65270623	      1.01566583	     -0.20958316	     -5.95806305	     -1.92926185	      6.26734411	    -16.89720989	    -18.28190971	     20.22820539	     43.74007708	    -14.88362949	    -16.17928758	      2.86385276	    -58.52883256	    -26.58734523	    -93.55084623	     10.46104904	      0.00000000	      0.00000000	      0.00000000
      0.12000000	     70.15030623	     -3.18702973	      2.71700113	      0.65267933	      1.01566198	     -0.20953098	     -5.69054138	     -1.83294597	      6.39823740	    -16.84242567	    -18.37313173	     20.04933545	     43.70716694	    -14.82674203	    -16.23540144	      2.83339611	    -58.52356624	    -26.58049624	    -93.61552507	     10.26932883	      0.00000000	      0.00000000	      0.00000000
      0.13000000	     70.10646560	     -3.24192700	      2.68847016	      0.65265327	      1.01566296	     -0.20949995	     -5.46397118	     -1.73252083	      6.50642259	    -16.82322757	    -18.47325740	     19.86876134	     43.69919106	    -14.78374084	    -16.28787240	      2.80402538	    -58.51838338	    -26.59021158	    -93.67950280	     10.09650643	      0.00000000	      0.00000000	      0.00000000
      0.14000000	     70.07295263	     -3.29151175	      2.66328185	      0.65261810	      1.01567323	     -0.20948265	     -5.27720541	     -1.63227702	      6.59413958	    -16.83580849	    -18.56925143	     19.71205844	     43.71924021	    -14.75032401	    -16.33650343	      2.77604401	    -58.51293603	    -26.62239614	    -93.74217206	      9.94967124	      0.00000000	      0.00000000	      0.00000000
      0.15000000	     70.04598035	     -3.33172682	      2.64225905	      0.65257788	      1.01568608	     -0.20945185	     -5.12670747	     -1.53764441	      6.66395719	    -16.87553020	    -18.65047482	     19.59670682	     43.76861609	    -14.72115751	    -16.38015251	      2.75036376	    -58.50686214	    -26.68329762	    -93.80337816	      9.83441406	      0.00000000	      0.00000000	      0.00000000
      0.16000000	     70.02061750	     -3.35956951	      2.62573604	      0.65254671	      1.01569026	     -0.20939553	     -5.00855111	     -1.45278579	      6.71826984	    -16.93771530	    -18.70994156	     19.53132019	     43.84686136	    -14.69142872	    -16.41667301	      2.72791629	    -58.49972361	    -26.77841659	    -93.86364991	      9.75406054	      0.00000000	      0.00000000	      0.00000000
      0.17000000	     69.99214310	     -3.37446607	      2.61323744	      0.65254159	      1.01567943	     -0.20933165	     -4.92018575	     -1.37928990	      6.75895686	    -17.01832230	    -18.74468593	     19.51672300	     43.95210077	    -14.65794540	    -16.44342199	      2.70923339	    -58.49079339	    -26.91143742	    -93.92437656	      9.70907162	      0.00000000	      0.00000000	      0.00000000
